<svg xmlns="http://www.w3.org/2000/svg" viewBox="0 0 64 64" width="64" height="64" fill="currentColor" role="img" aria-label="GeoDispatch">
  <title>GeoDispatch</title>
  <path fill-rule="evenodd" d="M0 32A32 32 0 1 0 64 32A32 32 0 1 0 0 32ZM6.88 32A25.12 25.12 0 1 0 57.12 32A25.12 25.12 0 1 0 6.88 32ZM10.88 32A21.12 21.12 0 1 0 53.12 32A21.12 21.12 0 1 0 10.88 32ZM17.76 32A14.24 14.24 0 1 0 46.24 32A14.24 14.24 0 1 0 17.76 32ZM21.44 32A10.56 10.56 0 1 0 42.56 32A10.56 10.56 0 1 0 21.44 32Z"/>
</svg>
