<svg xmlns="http://www.w3.org/2000/svg" viewBox="0 0 225.359 225.359" width="225.359" height="225.359" fill="currentColor" role="img" aria-label="GeoDispatch">
  <title>GeoDispatch</title>
  <path fill-rule="evenodd" d="M0 112.679A112.679 112.679 0 1 0 225.359 112.679A112.679 112.679 0 1 0 0 112.679ZM19.876 112.679A92.804 92.804 0 1 0 205.483 112.679A92.804 92.804 0 1 0 19.876 112.679ZM38.311 112.679A74.368 74.368 0 1 0 187.048 112.679A74.368 74.368 0 1 0 38.311 112.679ZM58.187 112.679A54.493 54.493 0 1 0 167.172 112.679A54.493 54.493 0 1 0 58.187 112.679ZM75.495 112.679A37.184 37.184 0 1 0 149.863 112.679A37.184 37.184 0 1 0 75.495 112.679ZM100.409 103.383A12.271 12.271 0 1 0 124.95 103.383A12.271 12.271 0 1 0 100.409 103.383ZM91.322 135.978A23.054 23.054 0 0 1 134.037 135.978A31.607 31.607 0 0 1 91.322 135.978Z"/>
</svg>
